<svg width="13" height="13" viewBox="0 0 13 13" fill="none" xmlns="http://www.w3.org/2000/svg">
<path d="M6.26663 12.5333C6.11022 12.5333 5.95902 12.5027 5.81303 12.4416C5.66703 12.3805 5.53362 12.294 5.4128 12.182L0.351283 7.12047C0.239272 6.99964 0.152722 6.86623 0.0916334 6.72023C0.0305445 6.57424 0 6.42304 0 6.26663C0 6.11022 0.0301278 5.95723 0.0903834 5.80767C0.150639 5.65809 0.237606 5.52647 0.351283 5.4128L5.4128 0.351283C5.53362 0.229094 5.66703 0.14 5.81303 0.0839996C5.95902 0.0279996 6.11022 0 6.26663 0C6.42304 0 6.57603 0.0284165 6.7256 0.0852498C6.87518 0.142094 7.0068 0.230772 7.12047 0.351283L12.182 5.4128C12.3025 5.52647 12.3912 5.65758 12.448 5.80613C12.5049 5.95468 12.5333 6.10818 12.5333 6.26663C12.5333 6.42304 12.5053 6.57424 12.4493 6.72023C12.3933 6.86623 12.3042 6.99964 12.182 7.12047L7.12047 12.182C7.0068 12.2957 6.87569 12.3826 6.72713 12.4429C6.57859 12.5031 6.42509 12.5333 6.26663 12.5333ZM6.41408 11.4692L11.4692 6.41408C11.5034 6.37989 11.5205 6.33074 11.5205 6.26663C11.5205 6.20252 11.5034 6.15337 11.4692 6.11918L6.41408 1.06408C6.37989 1.02989 6.33074 1.0128 6.26663 1.0128C6.20252 1.0128 6.15337 1.02989 6.11918 1.06408L1.06408 6.11918C1.02989 6.15337 1.0128 6.20252 1.0128 6.26663C1.0128 6.33074 1.02989 6.37989 1.06408 6.41408L6.11918 11.4692C6.15337 11.5034 6.20252 11.5205 6.26663 11.5205C6.33074 11.5205 6.37989 11.5034 6.41408 11.4692ZM6.26685 6.991C6.40858 6.991 6.52731 6.94308 6.62303 6.84725C6.71876 6.75142 6.76662 6.63267 6.76662 6.49102V3.74742C6.76662 3.60575 6.71868 3.487 6.62282 3.39117C6.52694 3.29534 6.40814 3.24743 6.26642 3.24743C6.12468 3.24743 6.00596 3.29534 5.91023 3.39117C5.81451 3.487 5.76665 3.60575 5.76665 3.74742V6.49102C5.76665 6.63267 5.81458 6.75142 5.91045 6.84725C6.00633 6.94308 6.12513 6.991 6.26685 6.991ZM6.26663 8.73457C6.4192 8.73457 6.54708 8.68297 6.65028 8.57977C6.75348 8.47656 6.80508 8.34867 6.80508 8.19612C6.80508 8.04355 6.75348 7.91567 6.65028 7.81247C6.54708 7.70927 6.4192 7.65767 6.26663 7.65767C6.11407 7.65767 5.98618 7.70927 5.88298 7.81247C5.77978 7.91567 5.72818 8.04355 5.72818 8.19612C5.72818 8.34867 5.77978 8.47656 5.88298 8.57977C5.98618 8.68297 6.11407 8.73457 6.26663 8.73457Z" fill="#EC2B2B"/>
</svg>
