<svg width="24" height="39" viewBox="0 0 24 39" fill="none" xmlns="http://www.w3.org/2000/svg">
<path d="M4 9.5L7 7L8 11L3.5 11.5L4 9.5Z" fill="#888888"/>
<path d="M20 9.5L17 7L16 11L20.5 11.5L20 9.5Z" fill="#888888"/>
<path d="M11.03 2.58991C11.3011 2.36035 11.6448 2.23438 12 2.23438C12.3552 2.23437 12.6989 2.36035 12.97 2.58991L20.47 8.95291C20.6361 9.0937 20.7695 9.26896 20.861 9.46652C20.9526 9.66407 21 9.87918 21 10.0969V19.4999C21 19.8977 20.842 20.2793 20.5607 20.5606C20.2794 20.8419 19.8978 20.9999 19.5 20.9999H13.75C13.5511 20.9999 13.3603 20.9209 13.2197 20.7802C13.079 20.6396 13 20.4488 13 20.2499V13.9999H11V20.2499C11 20.4488 10.921 20.6396 10.7803 20.7802C10.6397 20.9209 10.4489 20.9999 10.25 20.9999H4.5C4.10218 20.9999 3.72064 20.8419 3.43934 20.5606C3.15804 20.2793 3 19.8977 3 19.4999V10.0969C3 9.65691 3.194 9.23791 3.53 8.95291L11.03 2.58991ZM12 3.73391L4.5 10.0969V19.4999H9.5V13.2499C9.5 13.051 9.57902 12.8602 9.71967 12.7196C9.86032 12.5789 10.0511 12.4999 10.25 12.4999H13.75C13.9489 12.4999 14.1397 12.5789 14.2803 12.7196C14.421 12.8602 14.5 13.051 14.5 13.2499V19.4999H19.5V10.0969L12 3.73391Z" fill="#888888"/>
<rect x="4" y="10" width="6" height="10" fill="#888888"/>
<rect x="14" y="10" width="6" height="10" fill="#888888"/>
<rect x="17" y="7" width="6" height="10" transform="rotate(90 17 7)" fill="#888888"/>
<path d="M6.5 7.5L12 3L17.5 7.5H6.5Z" fill="#888888"/>
<path d="M8.89039 34.08H15.0604V36.66H8.89039V34.08ZM14.2504 34.72H9.71039V36.03H14.2504V34.72ZM8.32039 28.48H15.5904V29.13H8.32039V28.48ZM11.9804 29.49C13.8404 29.49 14.9004 29.93 14.9004 30.77C14.9004 31.61 13.8404 32.05 11.9804 32.05C10.1104 32.05 9.06039 31.61 9.06039 30.77C9.06039 29.93 10.1104 29.49 11.9804 29.49ZM11.9804 30.07C10.6704 30.07 9.94039 30.32 9.94039 30.77C9.94039 31.22 10.6704 31.47 11.9804 31.47C13.2804 31.47 14.0104 31.22 14.0104 30.77C14.0104 30.32 13.2804 30.07 11.9804 30.07ZM11.5704 27.61H12.3904V28.9H11.5704V27.61ZM7.89039 32.74H16.0604V33.39H7.89039V32.74ZM11.5704 31.85H12.3904V33.1H11.5704V31.85Z" fill="#888888"/>
</svg>
