<svg width="197" height="38" viewBox="0 0 197 38" fill="none" xmlns="http://www.w3.org/2000/svg">
<path d="M18.7 2L31.2 37H26.3L23.35 28.7H7.85L4.9 37H7.07805e-08L12.5 2H18.7ZM15.55 6.95L9.45 24.2H21.75L15.65 6.95H15.55ZM69.8531 15.1V37H65.0031V16.1H55.4531V37H50.6031V16.1H41.0531V37H36.2031V11.75H39.8531L41.0531 13.8L44.6031 11.75H49.6531L54.3031 14.45L59.0031 11.75H64.0531L69.8531 15.1ZM83.3535 21.25V37H78.3535V2H83.3535V16.75H100.104V2H105.104V37H100.104V21.25H83.3535ZM117.446 26.75V32.9H127.496V26.75H117.446ZM118.396 37.25L112.596 33.9V25.75L118.396 22.4H127.496V16.35H115.096V12H126.546L132.346 15.35V37.25H131.046L127.496 35.2L123.946 37.25H118.396ZM148.754 11.75H156.304L162.104 15.1V33.9L156.304 37.25H148.754L145.204 35.2L141.654 37.25H140.354V0.499999H145.204V13.8L148.754 11.75ZM145.204 16.1V32.9H157.254V16.1H145.204ZM174.94 12V37H170.09V12H174.94ZM169.84 5.85V0.499999H175.19V5.85H169.84ZM180.932 16.35V12H185.532V7.8L190.382 5V12H196.382V16.35H190.382V32.65H196.382V37H191.332L185.532 33.65V16.35H180.932Z" fill="white"/>
</svg>
