<svg width="324" height="67" viewBox="0 0 324 67" fill="none" xmlns="http://www.w3.org/2000/svg">
<rect x="0.5" y="0.5" width="323" height="66" rx="9.5" fill="white" stroke="#646464"/>
<path d="M16.692 23.604H24.396V24.876H16.692V23.604ZM16.692 21.66H18.288V24.036H16.692V21.66ZM15.48 19.716H25.536V20.988H15.48V19.716ZM19.692 18.168H21.276V20.208H19.692V18.168ZM19.668 14.268H21.036V14.604C21.036 16.704 19.428 18.396 16.608 18.84L15.996 17.592C18.48 17.244 19.668 15.9 19.668 14.604V14.268ZM19.932 14.268H21.3V14.604C21.3 15.96 22.464 17.256 24.972 17.592L24.36 18.84C21.54 18.372 19.932 16.764 19.932 14.604V14.268ZM26.5191 19.464H36.5631V20.724H26.5191V19.464ZM30.7311 18.432H32.3271V20.064H30.7311V18.432ZM27.7551 17.616H35.4951V18.816H27.7551V17.616ZM27.7551 14.136H35.4111V15.336H29.3391V18.384H27.7551V14.136ZM28.8951 15.888H35.1591V17.028H28.8951V15.888ZM27.6951 21.12H29.2671V21.816H33.7551V21.12H35.3271V24.948H27.6951V21.12ZM29.2671 23.016V23.7H33.7551V23.016H29.2671ZM44.4889 19.296H46.0849V20.844H44.4889V19.296ZM40.2769 18.36H50.3209V19.608H40.2769V18.36ZM41.5129 14.28H49.0489V17.772H41.5129V14.28ZM47.4769 15.516H43.0849V16.548H47.4769V15.516ZM41.4289 20.304H49.1089V23.16H43.0129V24.144H41.4409V22.056H47.5369V21.492H41.4289V20.304ZM41.4409 23.796H49.3969V24.996H41.4409V23.796ZM54.3639 14.724C56.0199 14.724 57.2319 16.26 57.2319 18.684C57.2319 21.132 56.0199 22.668 54.3639 22.668C52.6959 22.668 51.4959 21.132 51.4959 18.684C51.4959 16.26 52.6959 14.724 54.3639 14.724ZM54.3639 16.176C53.5599 16.176 53.0199 17.052 53.0199 18.684C53.0199 20.34 53.5599 21.228 54.3639 21.228C55.1799 21.228 55.7079 20.34 55.7079 18.684C55.7079 17.052 55.1799 16.176 54.3639 16.176ZM59.0559 13.944H60.6399V25.092H59.0559V13.944ZM56.7639 17.952H59.7279V19.236H56.7639V17.952ZM62.355 19.032H72.399V20.292H62.355V19.032ZM63.519 23.688H71.307V24.948H63.519V23.688ZM63.519 21.132H71.199V22.392H65.103V24.516H63.519V21.132ZM67.695 17.04H71.523V18.288H67.695V17.04ZM67.695 14.4H71.475V15.66H69.327V17.58H67.695V14.4ZM63.291 14.4H67.107V15.66H64.923V17.58H63.291V14.4ZM63.291 17.04H63.975C65.223 17.04 66.123 17.016 67.179 16.812L67.311 18.048C66.207 18.276 65.271 18.288 63.975 18.288H63.291V17.04ZM76.0701 15.708H77.3421V16.956C77.3421 19.524 76.2981 22.032 74.2101 22.98L73.3101 21.72C75.1701 20.892 76.0701 18.84 76.0701 16.956V15.708ZM76.4301 15.708H77.6901V16.956C77.6901 18.756 78.5781 20.676 80.4381 21.444L79.5741 22.704C77.4621 21.792 76.4301 19.428 76.4301 16.956V15.708ZM73.7541 15.024H79.9821V16.332H73.7541V15.024ZM81.0141 13.956H82.6221V25.068H81.0141V13.956ZM90.1879 14.484C91.8919 14.484 93.1519 15.564 93.1519 17.076C93.1519 18.6 91.8919 19.68 90.1879 19.68C88.4959 19.68 87.2239 18.6 87.2239 17.076C87.2239 15.564 88.4959 14.484 90.1879 14.484ZM90.1879 15.78C89.3839 15.78 88.7719 16.272 88.7719 17.076C88.7719 17.892 89.3839 18.384 90.1879 18.384C91.0039 18.384 91.6159 17.892 91.6159 17.076C91.6159 16.272 91.0039 15.78 90.1879 15.78ZM94.3039 13.956H95.8999V19.428H94.3039V13.956ZM95.2639 16.26H97.3759V17.556H95.2639V16.26ZM88.1359 23.508H88.7479C89.7199 23.508 90.5719 23.436 91.3879 23.16L91.6279 24.408C90.7039 24.732 89.8399 24.78 88.7479 24.78H88.1359V23.508ZM88.1359 20.496H89.6839V23.892H88.1359V20.496ZM91.2319 20.532H96.7879V21.672H91.2319V20.532ZM94.0159 21.948C95.2759 21.948 96.1519 22.56 96.1519 23.52C96.1519 24.48 95.2759 25.08 94.0159 25.08C92.7439 25.08 91.8679 24.48 91.8679 23.52C91.8679 22.56 92.7439 21.948 94.0159 21.948ZM94.0159 23.04C93.5839 23.04 93.2839 23.196 93.2839 23.52C93.2839 23.844 93.5839 24 94.0159 24C94.4239 24 94.7359 23.844 94.7359 23.52C94.7359 23.196 94.4239 23.04 94.0159 23.04ZM93.2479 19.74H94.7959V21.384H93.2479V19.74ZM105.847 13.956H107.455V25.068H105.847V13.956ZM102.571 15.108H104.155C104.155 18.504 103.003 21.288 99.0549 23.196L98.2269 21.924C101.419 20.388 102.571 18.372 102.571 15.396V15.108ZM98.8149 15.108H103.327V16.368H98.8149V15.108Z" fill="#646464"/>
<rect x="14" y="34.5" width="18" height="17.7059" rx="4" fill="white" stroke="#5EAB6E" stroke-width="2"/>
<path d="M50.033 39.81H52.321V41.201H50.033V39.81ZM51.866 37.119H53.595V43.697H51.866V37.119ZM45.6 44.191H47.316V45.283H51.879V44.191H53.595V49.027H45.6V44.191ZM47.316 46.622V47.649H51.879V46.622H47.316ZM46.302 38.042H47.706V38.809C47.706 41.071 46.64 43.164 44.326 43.931L43.455 42.553C45.444 41.903 46.302 40.33 46.302 38.809V38.042ZM46.666 38.042H48.057V38.809C48.057 40.213 48.876 41.708 50.774 42.345L49.929 43.684C47.693 42.943 46.666 40.954 46.666 38.809V38.042ZM43.923 37.665H50.397V39.043H43.923V37.665ZM58.183 39.251H59.574V39.693C59.574 41.799 58.495 43.645 56.207 44.308L55.388 42.969C57.338 42.423 58.183 41.045 58.183 39.693V39.251ZM58.508 39.251H59.912V39.693C59.912 40.941 60.744 42.241 62.681 42.761L61.888 44.113C59.587 43.476 58.508 41.682 58.508 39.693V39.251ZM55.817 38.38H62.278V39.732H55.817V38.38ZM58.183 37.08H59.912V38.952H58.183V37.08ZM63.227 37.119H64.956V44.49H63.227V37.119ZM64.475 40.083H66.555V41.5H64.475V40.083ZM56.922 44.997H64.956V49.17H63.227V46.375H56.922V44.997ZM72.001 43.411H73.743V45.283H72.001V43.411ZM67.438 42.735H78.319V44.1H67.438V42.735ZM72.859 44.867C75.472 44.867 77.032 45.647 77.032 47.025C77.032 48.403 75.472 49.157 72.859 49.157C70.246 49.157 68.686 48.403 68.686 47.025C68.686 45.647 70.246 44.867 72.859 44.867ZM72.859 46.167C71.234 46.167 70.428 46.427 70.428 47.025C70.428 47.61 71.234 47.87 72.859 47.87C74.471 47.87 75.277 47.61 75.277 47.025C75.277 46.427 74.471 46.167 72.859 46.167ZM68.829 37.431H70.532V38.445H75.225V37.431H76.941V41.994H68.829V37.431ZM70.532 39.745V40.642H75.225V39.745H70.532ZM88.094 37.119H89.732V49.157H88.094V37.119ZM86.482 41.747H88.484V43.138H86.482V41.747ZM85.403 37.327H87.002V48.585H85.403V37.327ZM79.735 45.023H80.58C82.062 45.023 83.297 44.971 84.727 44.711L84.857 46.115C83.401 46.401 82.127 46.44 80.58 46.44H79.735V45.023ZM79.735 38.51H84.181V39.901H81.451V45.699H79.735V38.51ZM97.0053 38.042H98.4093V39.797C98.4093 42.774 97.3693 45.569 95.0943 46.687L94.0543 45.296C96.0823 44.347 97.0053 42.033 97.0053 39.797V38.042ZM97.3563 38.042H98.7343V39.797C98.7343 41.955 99.5923 44.152 101.516 45.088L100.476 46.466C98.3053 45.361 97.3563 42.683 97.3563 39.797V38.042ZM101.997 37.119H103.739V49.157H101.997V37.119ZM103.349 41.747H105.481V43.19H103.349V41.747ZM108.704 41.149H110.433V43.359H108.704V41.149ZM112.942 41.149H114.658V43.359H112.942V41.149ZM106.26 42.826H117.141V44.191H106.26V42.826ZM111.681 44.802C114.281 44.802 115.854 45.582 115.854 46.973C115.854 48.377 114.281 49.157 111.681 49.157C109.068 49.157 107.495 48.377 107.495 46.973C107.495 45.582 109.068 44.802 111.681 44.802ZM111.681 46.102C110.069 46.102 109.25 46.375 109.25 46.973C109.25 47.584 110.069 47.857 111.681 47.857C113.293 47.857 114.112 47.584 114.112 46.973C114.112 46.375 113.293 46.102 111.681 46.102ZM111.707 37.288C114.359 37.288 116.062 38.172 116.062 39.615C116.062 41.045 114.359 41.903 111.707 41.903C109.042 41.903 107.352 41.045 107.352 39.615C107.352 38.172 109.042 37.288 111.707 37.288ZM111.707 38.614C110.056 38.614 109.133 38.939 109.133 39.615C109.133 40.278 110.056 40.603 111.707 40.603C113.358 40.603 114.281 40.278 114.281 39.615C114.281 38.939 113.358 38.614 111.707 38.614ZM118.206 38.926H123.965V40.304H118.206V38.926ZM121.105 40.837C122.639 40.837 123.744 42.02 123.744 43.71C123.744 45.387 122.639 46.57 121.105 46.57C119.584 46.57 118.466 45.387 118.466 43.71C118.466 42.02 119.584 40.837 121.105 40.837ZM121.105 42.28C120.455 42.28 120 42.8 120 43.71C120 44.62 120.455 45.127 121.105 45.127C121.755 45.127 122.223 44.62 122.223 43.71C122.223 42.8 121.755 42.28 121.105 42.28ZM126.916 37.119H128.567V49.157H126.916V37.119ZM125.473 42.007H127.462V43.398H125.473V42.007ZM124.394 37.34H126.006V48.65H124.394V37.34ZM120.26 37.444H121.963V39.797H120.26V37.444ZM130.191 46.362H141.085V47.766H130.191V46.362ZM134.754 43.788H136.483V46.7H134.754V43.788ZM131.335 37.886H133.051V39.732H138.186V37.886H139.902V44.152H131.335V37.886ZM133.051 41.084V42.774H138.186V41.084H133.051ZM150.431 37.119H152.173V49.157H150.431V37.119ZM146.882 38.367H148.598C148.598 42.046 147.35 45.062 143.073 47.129L142.176 45.751C145.634 44.087 146.882 41.903 146.882 38.679V38.367ZM142.813 38.367H147.701V39.732H142.813V38.367Z" fill="#222227"/>
</svg>
