<svg width="324" height="67" viewBox="0 0 324 67" fill="none" xmlns="http://www.w3.org/2000/svg">
<rect x="0.5" y="0.5" width="323" height="66" rx="9.5" fill="white" stroke="#646464"/>
<path d="M16.8 16.6104H24.432V17.8824H16.8V16.6104ZM16.8 14.1384H18.396V17.2944H16.8V14.1384ZM15.492 18.6504H25.548V19.9224H15.492V18.6504ZM19.668 21.1704H21.024V21.3984C21.024 23.2224 19.5 24.5784 16.74 24.9024L16.164 23.7024C18.588 23.4384 19.668 22.4184 19.668 21.3984V21.1704ZM19.98 21.1704H21.336V21.3984C21.336 22.4184 22.416 23.4384 24.84 23.7024L24.264 24.9024C21.504 24.5784 19.98 23.2224 19.98 21.3984V21.1704ZM16.608 20.7144H24.396V21.9624H16.608V20.7144ZM34.5711 13.8384H36.0951V24.9504H34.5711V13.8384ZM30.1671 18.0984H32.5431V19.3584H30.1671V18.0984ZM32.2311 14.0784H33.7191V24.4584H32.2311V14.0784ZM29.8071 15.1464H31.3431C31.3431 18.3144 30.3951 20.8344 27.2751 22.6464L26.3751 21.5304C28.9071 20.0064 29.8071 18.1584 29.8071 15.4704V15.1464ZM26.9991 15.1464H30.3111V16.4184H26.9991V15.1464ZM42.7729 15.5904H44.0329V16.8384C44.0329 19.3464 42.9769 21.9024 40.9369 22.8624L40.0369 21.6024C41.8729 20.7384 42.7729 18.6624 42.7729 16.8384V15.5904ZM43.1089 15.5904H44.3689V16.8384C44.3689 18.5184 45.2329 20.4864 47.0569 21.3264L46.1809 22.5864C44.1409 21.6384 43.1089 19.2024 43.1089 16.8384V15.5904ZM40.4689 14.9064H46.5649V16.2144H40.4689V14.9064ZM47.3809 13.8384H48.9889V24.9504H47.3809V13.8384ZM48.6289 18.0744H50.5969V19.3944H48.6289V18.0744ZM53.9919 15.5904H55.2639V16.8384C55.2639 19.4064 54.2199 21.9144 52.1319 22.8624L51.2319 21.6024C53.0919 20.7744 53.9919 18.7224 53.9919 16.8384V15.5904ZM54.3519 15.5904H55.6119V16.8384C55.6119 18.6384 56.4999 20.5584 58.3599 21.3264L57.4959 22.5864C55.3839 21.6744 54.3519 19.3104 54.3519 16.8384V15.5904ZM51.6759 14.9064H57.9039V16.2144H51.6759V14.9064ZM58.9359 13.8384H60.5439V24.9504H58.9359V13.8384ZM68.1098 14.3664C69.8138 14.3664 71.0738 15.4464 71.0738 16.9584C71.0738 18.4824 69.8138 19.5624 68.1098 19.5624C66.4178 19.5624 65.1458 18.4824 65.1458 16.9584C65.1458 15.4464 66.4178 14.3664 68.1098 14.3664ZM68.1098 15.6624C67.3058 15.6624 66.6938 16.1544 66.6938 16.9584C66.6938 17.7744 67.3058 18.2664 68.1098 18.2664C68.9258 18.2664 69.5378 17.7744 69.5378 16.9584C69.5378 16.1544 68.9258 15.6624 68.1098 15.6624ZM72.2258 13.8384H73.8218V19.3104H72.2258V13.8384ZM73.1858 16.1424H75.2978V17.4384H73.1858V16.1424ZM66.0578 23.3904H66.6698C67.6418 23.3904 68.4938 23.3184 69.3098 23.0424L69.5498 24.2904C68.6258 24.6144 67.7617 24.6624 66.6698 24.6624H66.0578V23.3904ZM66.0578 20.3784H67.6058V23.7744H66.0578V20.3784ZM69.1538 20.4144H74.7098V21.5544H69.1538V20.4144ZM71.9378 21.8304C73.1978 21.8304 74.0738 22.4424 74.0738 23.4024C74.0738 24.3624 73.1978 24.9624 71.9378 24.9624C70.6658 24.9624 69.7898 24.3624 69.7898 23.4024C69.7898 22.4424 70.6658 21.8304 71.9378 21.8304ZM71.9378 22.9224C71.5058 22.9224 71.2057 23.0784 71.2057 23.4024C71.2057 23.7264 71.5058 23.8824 71.9378 23.8824C72.3458 23.8824 72.6578 23.7264 72.6578 23.4024C72.6578 23.0784 72.3458 22.9224 71.9378 22.9224ZM71.1698 19.6224H72.7178V21.2664H71.1698V19.6224ZM83.7688 13.8384H85.3768V24.9504H83.7688V13.8384ZM80.4928 14.9904H82.0768C82.0768 18.3864 80.9248 21.1704 76.9768 23.0784L76.1488 21.8064C79.3408 20.2704 80.4928 18.2544 80.4928 15.2784V14.9904ZM76.7368 14.9904H81.2488V16.2504H76.7368V14.9904Z" fill="#646464"/>
<rect x="14" y="34.5" width="18" height="17.7059" rx="4" fill="white" stroke="#5EAB6E" stroke-width="2"/>
<path d="M44.053 48V46.453H46.133V40.369H44.378V39.186C45.353 39.004 46.003 38.757 46.627 38.38H48.044V46.453H49.851V48H44.053ZM54.126 38.042H55.53V39.797C55.53 42.891 54.464 45.686 52.072 46.791L51.045 45.361C53.138 44.451 54.126 42.137 54.126 39.797V38.042ZM54.464 38.042H55.868V39.797C55.868 42.02 56.817 44.23 58.871 45.114L57.857 46.505C55.53 45.439 54.464 42.761 54.464 39.797V38.042ZM59.443 37.106H61.185V49.183H59.443V37.106ZM67.957 41.552H69.933V42.943H67.957V41.552ZM71.844 37.119H73.495V49.157H71.844V37.119ZM69.387 37.301H71.012V48.611H69.387V37.301ZM65.851 37.964C67.45 37.964 68.477 39.615 68.477 42.332C68.477 45.062 67.45 46.713 65.851 46.713C64.265 46.713 63.251 45.062 63.251 42.332C63.251 39.615 64.265 37.964 65.851 37.964ZM65.851 39.589C65.201 39.589 64.824 40.499 64.824 42.332C64.824 44.178 65.201 45.075 65.851 45.075C66.527 45.075 66.904 44.178 66.904 42.332C66.904 40.499 66.527 39.589 65.851 39.589ZM80.7033 38.276H82.1203V39.095C82.1203 41.344 81.0413 43.398 78.7143 44.139L77.8433 42.774C79.8583 42.137 80.7033 40.59 80.7033 39.095V38.276ZM81.0413 38.276H82.4583V39.082C82.4583 40.486 83.2773 41.903 85.2273 42.514L84.3952 43.879C82.1073 43.177 81.0413 41.214 81.0413 39.082V38.276ZM78.2983 37.821H84.8113V39.186H78.2983V37.821ZM85.7993 37.119H87.5283V44.087H85.7993V37.119ZM87.0473 39.836H89.1273V41.24H87.0473V39.836ZM79.7023 44.568H87.5283V49.027H79.7023V44.568ZM85.8383 45.92H81.4053V47.662H85.8383V45.92ZM92.7142 39.017H94.0792V40.369C94.0792 43.086 92.9352 45.855 90.7252 46.895L89.7502 45.53C91.7392 44.594 92.7142 42.345 92.7142 40.369V39.017ZM93.0782 39.017H94.4432V40.369C94.4432 42.189 95.3792 44.321 97.3552 45.231L96.4062 46.596C94.1962 45.569 93.0782 42.93 93.0782 40.369V39.017ZM90.2182 38.276H96.8222V39.693H90.2182V38.276ZM97.7062 37.119H99.4482V49.157H97.7062V37.119ZM99.0582 41.708H101.19V43.138H99.0582V41.708ZM110.263 37.106H111.992V49.183H110.263V37.106ZM102.619 44.971H103.685C105.817 44.971 107.52 44.893 109.431 44.568L109.6 45.959C107.65 46.31 105.882 46.375 103.685 46.375H102.619V44.971ZM102.606 38.133H108.287V42.787H104.374V45.491H102.619V41.422H106.519V39.511H102.606V38.133ZM118.738 41.552H120.714V42.943H118.738V41.552ZM122.625 37.119H124.276V49.157H122.625V37.119ZM120.168 37.301H121.793V48.611H120.168V37.301ZM116.632 37.964C118.231 37.964 119.258 39.615 119.258 42.332C119.258 45.062 118.231 46.713 116.632 46.713C115.046 46.713 114.032 45.062 114.032 42.332C114.032 39.615 115.046 37.964 116.632 37.964ZM116.632 39.589C115.982 39.589 115.605 40.499 115.605 42.332C115.605 44.178 115.982 45.075 116.632 45.075C117.308 45.075 117.685 44.178 117.685 42.332C117.685 40.499 117.308 39.589 116.632 39.589ZM128.846 41.786H139.74V43.151H128.846V41.786ZM130.185 39.784H138.453V41.136H130.185V39.784ZM130.185 37.34H138.349V38.718H131.901V40.954H130.185V37.34ZM130.081 43.827H138.401V47.012H131.797V48.052H130.094V45.79H136.698V45.127H130.081V43.827ZM130.094 47.74H138.713V49.066H130.094V47.74ZM149.085 37.119H150.827V49.157H149.085V37.119ZM145.536 38.367H147.252C147.252 42.046 146.004 45.062 141.727 47.129L140.83 45.751C144.288 44.087 145.536 41.903 145.536 38.679V38.367ZM141.467 38.367H146.355V39.732H141.467V38.367Z" fill="#222227"/>
</svg>
