<svg width="24" height="38" viewBox="0 0 24 38" fill="none" xmlns="http://www.w3.org/2000/svg">
<path d="M5.33078 27.07C6.68078 27.07 7.67078 27.89 7.67078 29.08C7.67078 30.26 6.68078 31.08 5.33078 31.08C3.99078 31.08 3.00078 30.26 3.00078 29.08C3.00078 27.89 3.99078 27.07 5.33078 27.07ZM5.33078 27.75C4.46078 27.75 3.80078 28.3 3.80078 29.08C3.80078 29.86 4.46078 30.4 5.33078 30.4C6.21078 30.4 6.86078 29.86 6.86078 29.08C6.86078 28.3 6.21078 27.75 5.33078 27.75ZM9.37078 26.74H10.2108V31.37H9.37078V26.74ZM4.36078 31.81H10.2108V34.01H5.19078V35.37H4.38078V33.39H9.39078V32.48H4.36078V31.81ZM4.38078 35H10.5108V35.66H4.38078V35ZM16.82 29.08H18.86V29.77H16.82V29.08ZM18.6 26.74H19.43V32.13H18.6V26.74ZM16.46 32.4C18.32 32.4 19.47 33.03 19.47 34.09C19.47 35.16 18.32 35.77 16.46 35.77C14.59 35.77 13.44 35.16 13.44 34.09C13.44 33.03 14.59 32.4 16.46 32.4ZM16.46 33.05C15.1 33.05 14.27 33.43 14.27 34.09C14.27 34.74 15.1 35.12 16.46 35.12C17.82 35.12 18.65 34.74 18.65 34.09C18.65 33.43 17.82 33.05 16.46 33.05ZM14.3 27.65H14.98V28.38C14.98 30.05 13.96 31.48 12.46 32.04L12.03 31.38C13.37 30.89 14.3 29.68 14.3 28.38V27.65ZM14.46 27.65H15.13V28.38C15.13 29.55 16.01 30.67 17.32 31.13L16.9 31.79C15.43 31.26 14.46 29.9 14.46 28.38V27.65ZM12.28 27.4H17.11V28.08H12.28V27.4Z" fill="#5EAB6E"/>
<path d="M19 3H18V1H16V3H8V1H6V3H5C3.9 3 3 3.9 3 5V19C3 19.5304 3.21071 20.0391 3.58579 20.4142C3.96086 20.7893 4.46957 21 5 21H19C20.11 21 21 20.11 21 19V5C21 4.46957 20.7893 3.96086 20.4142 3.58579C20.0391 3.21071 19.5304 3 19 3ZM19 19H5V9H19V19ZM5 7V5H19V7H5ZM10.56 17.46L16.5 11.53L15.43 10.47L10.56 15.34L8.45 13.23L7.39 14.29L10.56 17.46Z" fill="#5EAB6E"/>
</svg>
